<?xml version="1.0" encoding="utf-8"?>
<!-- Generator: Adobe Illustrator 27.7.0, SVG Export Plug-In . SVG Version: 6.00 Build 0)  -->
<svg version="1.1" id="Layer_2_00000176742564182841907260000002189207498496737196_"
	 xmlns="http://www.w3.org/2000/svg" xmlns:xlink="http://www.w3.org/1999/xlink" x="0px" y="0px" viewBox="0 0 612 792"
	 style="enable-background:new 0 0 612 792;" xml:space="preserve">
<style type="text/css">
	.st0{fill:none;}
	.st1{fill:#5691C1;stroke:#58595B;stroke-width:2;stroke-miterlimit:10;}
	.st2{fill:#8B5E3C;}
	.st3{fill:none;stroke:#000000;stroke-miterlimit:10;}
	.st4{fill:#FFFFFF;stroke:#000000;stroke-width:0.75;stroke-miterlimit:10;}
	.st5{stroke:#58595B;stroke-width:0.25;stroke-miterlimit:10;}
	.st6{fill:none;stroke:#58595B;stroke-width:4;stroke-miterlimit:10;}
	.st7{stroke:#000000;stroke-width:0.75;stroke-miterlimit:10;}
	.st8{fill:#303030;stroke:#000000;stroke-width:0.75;stroke-miterlimit:10;}
	.st9{fill:#FFFFFF;}
	.st10{fill:#FFFFFF;stroke:#E6E7E8;stroke-miterlimit:10;}
	.st11{fill:#E7EA71;stroke:#58595B;stroke-width:0.25;stroke-miterlimit:10;}
	.st12{stroke:#000000;stroke-miterlimit:10;}
	.st13{fill:#8B5E3C;stroke:#3D2514;stroke-width:0.75;stroke-miterlimit:10;}
	.st14{fill:#54514F;}
	.st15{fill:#404041;}
	.st16{fill:#BBBDBF;}
	.st17{fill:#D0D2D3;}
	.st18{fill:#58595B;}
	.st19{fill:none;stroke:#404041;stroke-width:13;stroke-miterlimit:10;}
	.st20{fill:#E6E7E8;}
	.st21{fill:#808184;}
	.st22{fill:#929497;}
	.st23{fill:#231F20;}
	.st24{fill:#BBBDBF;stroke:#6D6E70;stroke-miterlimit:10;}
	.st25{fill:#EC1C24;}
	.st26{fill:#8B5E3C;stroke:#8B5E3C;stroke-width:0.25;stroke-miterlimit:10;}
	.st27{fill:#8B5E3C;stroke:#58595B;stroke-width:0.25;stroke-miterlimit:10;}
</style>
<line class="st0" x1="78.9" y1="161.7" x2="79.1" y2="161.9"/>
<path class="st1" d="M300.7,443.2c25-14.4,50.1-28.7,75.1-43l43.8,157.9c8.9,39.8,17.9,79.7,26.8,119.5
	c-20.9-3.5-41.6-6.9-62.5-10.4l2.5-91.2l-45-98.9l4.8,123.3c5.8,26.2,11.5,52.3,17.3,78.4c-20.9-1.3-41.9-2.6-62.7-3.9
	C300.7,597.8,300.7,520.5,300.7,443.2z"/>
<path class="st2" d="M336.6,291l-2.1-11.5l-29.4,0l-2.7,13.2C314.7,297.8,326,296.7,336.6,291z"/>
<ellipse cx="305.3" cy="241.2" rx="3.3" ry="3.6"/>
<ellipse cx="335.6" cy="241.2" rx="3.3" ry="3.6"/>
<line class="st0" x1="312" y1="261.5" x2="317.9" y2="262.1"/>
<line class="st0" x1="326.6" y1="261.8" x2="332.6" y2="262.4"/>
<line class="st0" x1="326.6" y1="261.8" x2="315" y2="262.1"/>
<line class="st3" x1="300.2" y1="231.6" x2="310.2" y2="231.6"/>
<line class="st3" x1="330.6" y1="231.6" x2="340.6" y2="231.6"/>
<path class="st4" d="M451.2,489.3"/>
<path class="st5" d="M229.1,347.3"/>
<path class="st6" d="M258.4,518"/>
<path class="st6" d="M217.4,411.3"/>
<path class="st6" d="M311.7,472.8"/>
<path class="st6" d="M258.4,518"/>
<path class="st6" d="M258.4,518"/>
<path class="st6" d="M241.1,429.8"/>
<path class="st6" d="M300.7,466.3"/>
<path class="st6" d="M258.4,518"/>
<path class="st7" d="M310.7,238.1c7.1-3.9,13.8-4,19.6,1.2"/>
<path class="st4" d="M196.8,347.9"/>
<path class="st4" d="M475.4,273.2"/>
<path class="st4" d="M236.5,342.8"/>
<path class="st8" d="M446.4,426.5"/>
<path class="st8" d="M199.8,494.1"/>
<path class="st7" d="M258.3,483.5"/>
<path class="st9" d="M205.6,364.2"/>
<path class="st9" d="M241.3,313.3"/>
<path class="st9" d="M235.8,365.4"/>
<path class="st10" d="M455.5,461.6"/>
<path class="st10" d="M197.1,473.6"/>
<path class="st11" d="M265.5,320.3"/>
<polygon class="st2" points="390.7,369.1 416.1,363 418.5,390.8 431,432.3 412.5,437.4 399,396.2 "/>
<path class="st11" d="M300.8,288.4c10.2,8.7,21.6,12,35.9,0l23.4,3.5c4.8,1.5,24.8,11.2,28.3,13.6c3.7,3.8,9.7,10.2,16.1,18.8
	c1.8,6.3,13.6,23.1,17.9,38.5c0.5,1.6-28,5.6-37.6,6.6c-4.4-13.5-8.7-27-13.1-40.5l18.5,109.2l-95,19.6l5-95.3l0.5-27.5
	c-3.9,14.1-7.9,28.2-11.8,42.3c-15.2-1.8-30.5-3.6-45.7-5.4c11.3-22,22.5-43.9,33.8-65.9L300.8,288.4z"/>
<g>
	<path class="st12" d="M349.7,230.6c2,3.7-6,42.4-29.7,48.4c-16.7,4.2-39-6.7-40.7-17.1c-3.3-19.9-29.6-61.2-29-83.2
		c0.2-8.2,54.8-33.5,67.8-26C336.1,163.2,342.1,216.2,349.7,230.6z"/>
	<path class="st13" d="M305.2,215.5c20.7-6.3,42,3.6,47.6,22.1c4.3,14.4-2.2,29.8-15.1,38.8c-3.6,2.5-7.8,4.6-12.3,5.9
		c-20.7,6.3-42-3.6-47.6-22.1C272.2,241.8,284.5,221.8,305.2,215.5z"/>
	<path class="st7" d="M306.4,248c-6,5.2-12.7,7.2-19.8,7c-6.1-4.3-8.7-9.7-9.3-15.8c8.2-7.2,17.7-10.2,28.4-9.5
		C309.9,236.8,308.7,243.9,306.4,248z"/>
	<path class="st7" d="M342.2,239.4c-6,4.6-12.5,6-19.2,5.1c-5.6-4.8-7.6-10.5-7.9-16.5c8.2-6.4,17.5-8.5,27.7-6.7
		C346.2,228.5,344.6,235.6,342.2,239.4z"/>
	
		<rect x="311.3" y="265" transform="matrix(0.9574 -0.2887 0.2887 0.9574 -63.2942 102.9562)" class="st7" width="12.2" height="2.2"/>
	
		<rect x="252.5" y="281.5" transform="matrix(0.9988 -4.991426e-02 4.991426e-02 0.9988 -13.7643 13.1008)" class="st14" width="5.8" height="1.2"/>
	
		<rect x="257.9" y="301.5" transform="matrix(0.849 -0.5284 0.5284 0.849 -120.2524 183.4163)" class="st14" width="5.8" height="1.2"/>
	
		<rect x="252.6" y="291.8" transform="matrix(0.9574 -0.2887 0.2887 0.9574 -73.547 86.2086)" class="st14" width="5.8" height="1.2"/>
</g>
<g>
	<polygon class="st15" points="304.7,306.3 175.6,300.2 173.3,295.9 303.7,302.3 	"/>
	<polygon class="st16" points="304.7,236.9 313.2,238 313.2,304.8 304.7,306.3 303.7,302.3 	"/>
	<polygon class="st17" points="173.3,238 304.7,236.9 304.5,254.4 303.7,302.3 173.3,295.9 	"/>
	<g>
		<ellipse class="st16" cx="195.3" cy="274.4" rx="18.5" ry="17"/>
		<ellipse class="st18" cx="195.3" cy="274.4" rx="14.5" ry="14.2"/>
		<ellipse class="st19" cx="195.3" cy="274.4" rx="9.9" ry="9"/>
		<ellipse class="st15" cx="195.3" cy="274.4" rx="3.9" ry="3.5"/>
	</g>
	<g>
		<ellipse class="st16" cx="277.7" cy="278.3" rx="19.4" ry="19.2"/>
		<ellipse class="st18" cx="277.7" cy="278.3" rx="15.2" ry="16.1"/>
		<ellipse class="st19" cx="277.7" cy="278.3" rx="10.4" ry="10.2"/>
		<ellipse class="st15" cx="277.7" cy="278.3" rx="4.1" ry="4"/>
	</g>
	<rect x="185.5" y="224.3" class="st20" width="2.7" height="13.5"/>
	<path class="st21" d="M191.1,237.9c-1,0.1-1.9,0.2-2.9,0.2c0-2.4,0-4.8,0-7.1c0.3-0.1,1-0.3,1.8,0c0.4,0.1,0.7,0.3,0.9,0.5
		C191,233.6,191.1,235.8,191.1,237.9z"/>
	<path class="st20" d="M305.2,236.9c-1,0-1.9,0-2.9,0c0-2.1-0.8-13.4-0.8-13.4s0.5-0.8,0.8-1.2c1,0,1.9,0,2.9,0V236.9z"/>
	<path class="st22" d="M307.2,237.2c-0.7,0-1.4,0-2.1,0V222c1,0,1.7,0.7,1.7,0.7C307,227.6,307.1,232.4,307.2,237.2z"/>
	<rect x="224.7" y="269.6" class="st23" width="19.5" height="9.7"/>
	<path class="st24" d="M253.5,287c-12.3-0.3-24.6-0.7-37-1c0-9.2,0-18.5,0-27.7c12.3,0,24.6,0,37,0
		C253.5,267.9,253.5,277.5,253.5,287z"/>
	<rect x="226" y="271.3" class="st17" width="17.3" height="6.9"/>
	<ellipse class="st23" cx="229.4" cy="274.8" rx="1.6" ry="1.5"/>
	<ellipse class="st23" cx="239.9" cy="274.7" rx="1.6" ry="1.5"/>
	<rect x="232.4" y="273.6" class="st15" width="5.1" height="2.1"/>
	<path class="st23" d="M301.5,230.2c-37.8,0.3-75.5,0.5-113.3,0.8c0-2.2,0-4.3,0-6.5c38-0.7,76-1.5,114-2.2
		C302,224.9,301.7,227.6,301.5,230.2z"/>
	<polygon class="st22" points="259.5,253.8 255.7,257.5 214.8,256.8 211.5,253.8 173.3,252.9 174.9,255.2 209.5,255.2 213.7,258.3 
		256.9,259.1 259.5,256 302.3,256.8 304.4,256 304.5,254.4 	"/>
	<rect x="199.2" y="240" class="st15" width="72.4" height="12.9"/>
	<path class="st15" d="M255.5,257.1c-13.4-0.1-26.9-0.2-40.3-0.3c-1.9-1.8-3.8-3.6-5.7-5.4c17.2,0.1,34.4,0.2,51.5,0.3
		C259.2,253.5,257.3,255.3,255.5,257.1z"/>
	<ellipse class="st17" cx="247.4" cy="254.1" rx="1.2" ry="1.2"/>
	<ellipse class="st17" cx="241.7" cy="254.1" rx="1.2" ry="1.2"/>
	<ellipse class="st17" cx="236.6" cy="254.1" rx="1.2" ry="1.2"/>
	<ellipse class="st17" cx="231.2" cy="254.1" rx="1.2" ry="1.2"/>
	<ellipse class="st17" cx="227.2" cy="254.1" rx="1.2" ry="1.2"/>
	<ellipse class="st25" cx="221.6" cy="254.1" rx="1.2" ry="1.2"/>
	<path class="st17" d="M234.1,265.2l10.1-3.3c-0.9,0.2-1.7,0.4-2.6,0.6c-2.5,0.6-5,1.2-7.5,1.8c-2.2-0.6-4.4-1.3-6.6-1.9
		c-1.2-0.3-2.3-0.7-3.5-1C227.3,262.7,230.7,263.9,234.1,265.2z"/>
	<path class="st17" d="M234.5,267.4c4.7-1.4,9.5-2.8,14.2-4.3c-4.7,1-9.5,2.1-14.2,3.1c-9.4-2.8-14.1-4.2-14.2-4
		C220.2,262.4,224.9,264.1,234.5,267.4z"/>
	<path class="st22" d="M243.5,262.1c-6.3-0.2-12.5-0.4-18.8-0.6c0.4,0.2,0.9,0.3,1.3,0.5c5.2,0.2,10.4,0.4,15.5,0.5
		C242.2,262.4,242.9,262.3,243.5,262.1z"/>
	<path class="st22" d="M247.3,266.9"/>
	<path class="st22" d="M245.7,266.1"/>
	<polygon class="st22" points="234.5,268.6 247.5,263.5 234.5,267.4 220.3,262.2 	"/>
</g>
<path class="st26" d="M277.7,374.1c1.1,12.5-3.9,24.9-17.1,37.2c-14.6-32.1-25.9-65.1-33.4-99.1l18.5-7.6
	c3.7,7.6,7.5,16.2,11.1,25.6c3.9,10,7,19.5,9.5,28.3C270.1,363.7,273.9,368.9,277.7,374.1z"/>
<ellipse transform="matrix(0.1309 -0.9914 0.9914 0.1309 -106.3988 486.4563)" class="st27" cx="224.3" cy="303.9" rx="7.5" ry="22.1"/>
<ellipse transform="matrix(0.9623 -0.2721 0.2721 0.9623 -105.1658 132.2633)" class="st2" cx="424.4" cy="445.4" rx="12.4" ry="21.1"/>
<rect x="169" y="260.8" transform="matrix(0.9706 0.2405 -0.2405 0.9706 67.9368 -33.6796)" class="st14" width="5.8" height="1.2"/>
<rect x="168.4" y="281.5" transform="matrix(0.9654 -0.2608 0.2608 0.9654 -67.6454 54.4364)" class="st14" width="5.8" height="1.2"/>
<rect x="166.1" y="270.7" class="st14" width="5.8" height="1.2"/>
<rect x="252" y="264.8" transform="matrix(0.9706 0.2405 -0.2405 0.9706 71.3256 -53.5174)" class="st14" width="5.8" height="1.2"/>
<rect x="251.4" y="285.5" transform="matrix(0.9654 -0.2608 0.2608 0.9654 -65.8083 76.2067)" class="st14" width="5.8" height="1.2"/>
<rect x="249.1" y="274.7" class="st14" width="5.8" height="1.2"/>
</svg>
