<?xml version="1.0" encoding="utf-8"?>
<!-- Generator: Adobe Illustrator 27.7.0, SVG Export Plug-In . SVG Version: 6.00 Build 0)  -->
<svg version="1.1" xmlns="http://www.w3.org/2000/svg" xmlns:xlink="http://www.w3.org/1999/xlink" x="0px" y="0px"
	 viewBox="0 0 1005.6 723.1" style="enable-background:new 0 0 1005.6 723.1;" xml:space="preserve">
<style type="text/css">
	.st0{display:none;}
	.st1{fill:#414042;}
	.st2{fill:#BCBEC0;}
	.st3{opacity:0.44;fill:#939598;}
	.st4{fill:#58595B;}
	.st5{fill:none;stroke:#414042;stroke-width:13;stroke-miterlimit:10;}
	.st6{fill:#E6E7E8;}
	.st7{fill:#808285;}
	.st8{opacity:0.22;fill:#E6E7E8;}
	.st9{fill:#939598;}
	.st10{opacity:0.35;fill:#939598;stroke:#6D6E71;stroke-miterlimit:10;}
	.st11{fill:#D1D3D4;}
	.st12{opacity:0.99;fill:#414042;}
	.st13{fill:#ED1C24;}
</style>
<g id="Layer_1" class="st0">
	
		<image style="display:inline;overflow:visible;" width="1500" height="1500" xlink:href="4451E070.jpg"  transform="matrix(0.3442 0 0 0.3149 265.2946 155.1016)">
	</image>
</g>
<g id="Layer_2">
	<polygon class="st1" points="737.6,544.8 286.8,523.2 278.7,508 734,530.4 	"/>
	<polygon class="st2" points="737.6,298.3 767.2,301.9 767.2,539.4 737.6,544.8 734,530.4 	"/>
	<polygon class="st3" points="278.7,301.9 737.6,298.3 736.7,360.4 734,530.4 278.7,508 	"/>
	<g>
		<ellipse class="st2" cx="355.5" cy="431.5" rx="64.5" ry="60.3"/>
		<ellipse class="st4" cx="355.5" cy="431.5" rx="50.6" ry="50.5"/>
		<ellipse class="st5" cx="355.5" cy="431.5" rx="34.5" ry="32"/>
		<ellipse class="st1" cx="355.5" cy="431.5" rx="13.5" ry="12.5"/>
	</g>
	<g>
		<ellipse class="st2" cx="643.2" cy="445.4" rx="67.8" ry="68.4"/>
		<ellipse class="st4" cx="643.2" cy="445.4" rx="53.1" ry="57.2"/>
		<circle class="st5" cx="643.2" cy="445.4" r="36.3"/>
		<circle class="st1" cx="643.2" cy="445.4" r="14.2"/>
	</g>
	<rect x="321.5" y="253.5" class="st6" width="9.6" height="48"/>
	<path class="st7" d="M341.2,301.7c-3.4,0.3-6.8,0.5-10.2,0.8c0-8.5,0-16.9,0-25.4c1-0.3,3.4-1,6.1,0c1.4,0.5,2.5,1.2,3.1,1.8
		C340.6,286.5,340.9,294.1,341.2,301.7z"/>
	<path class="st8" d="M739.1,298.3c-3.4,0-6.8,0-10.2,0c0.1-7.5-2.7-47.8-2.7-47.8s1.7-2.8,2.7-4.2c3.4,0,6.8,0,10.2,0V298.3z"/>
	<path class="st9" d="M746.3,299.2c-2.4,0-4.8,0-7.2,0v-54c3.4,0.1,5.8,2.6,5.8,2.6C745.4,265,745.8,282.1,746.3,299.2z"/>
	<rect x="458.3" y="414.3" width="68.1" height="34.5"/>
	<path class="st10" d="M558.7,476.3c-43-1.2-86-2.4-129-3.6c0-32.8,0-65.6,0-98.4c43,0,86,0,129,0
		C558.7,408.3,558.7,442.3,558.7,476.3z"/>
	<rect x="462.9" y="420.5" class="st11" width="60.5" height="24.6"/>
	<ellipse transform="matrix(0.7071 -0.7071 0.7071 0.7071 -166.9895 462.4368)" cx="474.7" cy="432.8" rx="5.4" ry="5.4"/>
	<ellipse transform="matrix(0.7071 -0.7071 0.7071 0.7071 -156.0749 488.2393)" cx="511.3" cy="432.5" rx="5.4" ry="5.4"/>
	<rect x="485.2" y="428.7" class="st1" width="17.8" height="7.6"/>
	<path d="M726.3,274.3c-131.8,0.9-263.5,1.9-395.3,2.8c0-7.7,0-15.4,0-23c132.6-2.6,265.3-5.2,397.9-7.7
		C728.1,255.6,727.2,264.9,726.3,274.3z"/>
	<polygon class="st9" points="579.6,358 566.4,371.2 423.6,368.8 412.3,358 278.7,355 284.4,363.1 405.4,363.1 420,374.2 570.6,377 
		579.6,366 729,368.8 736.6,366 736.7,360.4 	"/>
	<rect x="369.3" y="309" class="st1" width="252.7" height="46"/>
	<path class="st12" d="M565.7,370c-46.9-0.4-93.8-0.8-140.7-1.1c-6.6-6.4-13.3-12.8-19.9-19.2c60,0.4,119.9,0.8,179.9,1.2
		C578.5,357.2,572.1,363.6,565.7,370z"/>
	<circle class="st11" cx="537.4" cy="359.1" r="4.1"/>
	<circle class="st11" cx="517.6" cy="359.1" r="4.1"/>
	<circle class="st11" cx="499.7" cy="359.1" r="4.1"/>
	<circle class="st11" cx="481.1" cy="359.1" r="4.1"/>
	<circle class="st11" cx="467" cy="359.1" r="4.1"/>
	<circle class="st13" cx="447.5" cy="359.1" r="4.1"/>
	<path class="st11" d="M490.9,398.7l35.3-11.6c-3,0.7-6.1,1.5-9.1,2.2c-8.7,2.1-17.5,4.2-26.2,6.4c-7.6-2.2-15.3-4.5-22.9-6.7
		c-4.1-1.2-8.1-2.4-12.2-3.6C467.5,389.8,479.2,394.2,490.9,398.7z"/>
	<path class="st11" d="M492.4,406.4c16.5-5,33-10.1,49.5-15.1c-16.5,3.7-33,7.3-49.5,11c-32.8-10.1-49.4-14.8-49.6-14.2
		C442.6,388.8,459.1,394.9,492.4,406.4z"/>
	<path class="st9" d="M524,387.9c-21.9-0.7-43.7-1.3-65.6-2c1.5,0.5,3,1.1,4.5,1.6c18.1,0.6,36.1,1.2,54.2,1.9
		C519.4,388.8,521.7,388.3,524,387.9z"/>
	<path class="st9" d="M537.2,404.8"/>
	<path class="st9" d="M531.5,401.8"/>
	<polygon class="st9" points="492.3,410.9 537.8,392.5 492.4,406.4 442.8,388.2 	"/>
</g>
</svg>
