<?xml version="1.0" encoding="utf-8"?>
<!-- Generator: Adobe Illustrator 27.7.0, SVG Export Plug-In . SVG Version: 6.00 Build 0)  -->
<svg version="1.1" id="Layer_2_00000013912995218636191350000016356621677144103558_"
	 xmlns="http://www.w3.org/2000/svg" xmlns:xlink="http://www.w3.org/1999/xlink" x="0px" y="0px" viewBox="0 0 932.1 955.6"
	 style="enable-background:new 0 0 932.1 955.6;" xml:space="preserve">
<style type="text/css">
	.st0{fill:#6D6E71;}
	.st1{fill:none;stroke:#000000;stroke-width:33.0007;stroke-miterlimit:10.0002;}
	.st2{fill:#808285;stroke:#000000;stroke-width:9;stroke-miterlimit:10;}
	.st3{stroke:#000000;stroke-width:0.75;stroke-miterlimit:10;}
	.st4{fill:#A7A9AC;}
	.st5{fill:#231F20;}
</style>
<path d="M675.3,854.7l-475.6,3c-16.3,0.1-29.7-13.1-29.8-29.4l-2.7-411.1c-0.1-16.3,13.1-29.7,29.4-29.8l475.6-3
	c16.3-0.1,29.7,13.1,29.8,29.4l2.7,411.1C704.8,841.3,691.7,854.6,675.3,854.7z"/>
<path class="st0" d="M646.3,824.1H226.7c-14.6,0-26.4-11.8-26.4-26.4V438.2c0-14.6,11.8-26.4,26.4-26.4h419.5
	c14.6,0,26.4,11.8,26.4,26.4v359.5C672.7,812.3,660.9,824.1,646.3,824.1z"/>
<g>
	<ellipse cx="221.4" cy="580.7" rx="6.9" ry="6.7"/>
	<ellipse cx="221.9" cy="600.9" rx="6.9" ry="6.7"/>
	<ellipse cx="222.4" cy="621" rx="6.9" ry="6.7"/>
	<ellipse cx="222.9" cy="638.7" rx="6.9" ry="6.7"/>
	<ellipse cx="224.4" cy="696.8" rx="6.9" ry="6.7"/>
	<ellipse cx="225" cy="716.3" rx="6.9" ry="6.7"/>
	<ellipse cx="223.4" cy="656.5" rx="6.9" ry="6.7"/>
	<ellipse cx="223.9" cy="677.2" rx="6.9" ry="6.7"/>
	<ellipse cx="225.4" cy="733.4" rx="6.9" ry="6.7"/>
	<ellipse cx="220.9" cy="560.6" rx="6.9" ry="6.7"/>
	<ellipse cx="225.9" cy="750.5" rx="6.9" ry="6.7"/>
	<ellipse cx="226.4" cy="771.9" rx="6.9" ry="6.7"/>
	<ellipse cx="227" cy="793.2" rx="6.9" ry="6.7"/>
	<ellipse cx="227.4" cy="810.3" rx="6.9" ry="6.7"/>
</g>
<g>
	<ellipse cx="245.6" cy="580.1" rx="6.9" ry="6.7"/>
	<ellipse cx="246.1" cy="600.3" rx="6.9" ry="6.7"/>
	<ellipse cx="246.7" cy="620.4" rx="6.9" ry="6.7"/>
	<ellipse cx="247.1" cy="638.1" rx="6.9" ry="6.7"/>
	<ellipse cx="248.7" cy="696.1" rx="6.9" ry="6.7"/>
	<ellipse cx="249.2" cy="715.7" rx="6.9" ry="6.7"/>
	<ellipse cx="247.6" cy="655.8" rx="6.9" ry="6.7"/>
	<ellipse cx="248.2" cy="676.6" rx="6.9" ry="6.7"/>
	<ellipse cx="249.6" cy="732.8" rx="6.9" ry="6.7"/>
	<ellipse cx="245.1" cy="560" rx="6.9" ry="6.7"/>
	<ellipse cx="250.1" cy="749.9" rx="6.9" ry="6.7"/>
	<ellipse cx="250.7" cy="771.3" rx="6.9" ry="6.7"/>
	<ellipse cx="251.2" cy="792.6" rx="6.9" ry="6.7"/>
	<ellipse cx="251.7" cy="809.7" rx="6.9" ry="6.7"/>
</g>
<g>
	<ellipse cx="270" cy="579.5" rx="6.9" ry="6.7"/>
	<ellipse cx="270.5" cy="599.7" rx="6.9" ry="6.7"/>
	<ellipse cx="271" cy="619.8" rx="6.9" ry="6.7"/>
	<ellipse cx="271.5" cy="637.5" rx="6.9" ry="6.7"/>
	<ellipse cx="273" cy="695.5" rx="6.9" ry="6.7"/>
	<ellipse cx="273.5" cy="715.1" rx="6.9" ry="6.7"/>
	<ellipse cx="272" cy="655.2" rx="6.9" ry="6.7"/>
	<ellipse cx="272.5" cy="676" rx="6.9" ry="6.7"/>
	<ellipse cx="274" cy="732.2" rx="6.9" ry="6.7"/>
	<ellipse cx="269.4" cy="559.3" rx="6.9" ry="6.7"/>
	<ellipse cx="274.4" cy="749.3" rx="6.9" ry="6.7"/>
	<ellipse cx="275" cy="770.6" rx="6.9" ry="6.7"/>
	<ellipse cx="275.6" cy="792" rx="6.9" ry="6.7"/>
	<ellipse cx="276" cy="809.1" rx="6.9" ry="6.7"/>
</g>
<g>
	<ellipse cx="294.4" cy="580.4" rx="6.9" ry="6.7"/>
	<ellipse cx="294.9" cy="600.6" rx="6.9" ry="6.7"/>
	<ellipse cx="295.4" cy="620.7" rx="6.9" ry="6.7"/>
	<ellipse cx="295.9" cy="638.4" rx="6.9" ry="6.7"/>
	<ellipse cx="297.4" cy="696.4" rx="6.9" ry="6.7"/>
	<ellipse cx="297.9" cy="716" rx="6.9" ry="6.7"/>
	<ellipse cx="296.4" cy="656.1" rx="6.9" ry="6.7"/>
	<ellipse cx="296.9" cy="676.9" rx="6.9" ry="6.7"/>
	<ellipse cx="298.4" cy="733.1" rx="6.9" ry="6.7"/>
	<ellipse cx="293.8" cy="560.3" rx="6.9" ry="6.7"/>
	<ellipse cx="298.8" cy="750.2" rx="6.9" ry="6.7"/>
	<ellipse cx="299.4" cy="771.6" rx="6.9" ry="6.7"/>
	<ellipse cx="300" cy="792.9" rx="6.9" ry="6.7"/>
	<ellipse cx="300.4" cy="810" rx="6.9" ry="6.7"/>
</g>
<g>
	<ellipse cx="319.3" cy="579.8" rx="6.9" ry="6.7"/>
	<ellipse cx="319.8" cy="599.9" rx="6.9" ry="6.7"/>
	<ellipse cx="320.4" cy="620.1" rx="6.9" ry="6.7"/>
	<ellipse cx="320.8" cy="637.8" rx="6.9" ry="6.7"/>
	<ellipse cx="322.4" cy="695.8" rx="6.9" ry="6.7"/>
	<ellipse cx="322.9" cy="715.4" rx="6.9" ry="6.7"/>
	<ellipse cx="321.3" cy="655.5" rx="6.9" ry="6.7"/>
	<ellipse cx="321.8" cy="676.3" rx="6.9" ry="6.7"/>
	<ellipse cx="323.3" cy="732.5" rx="6.9" ry="6.7"/>
	<ellipse cx="318.8" cy="559.6" rx="6.9" ry="6.7"/>
	<ellipse cx="323.8" cy="749.6" rx="6.9" ry="6.7"/>
	<ellipse cx="324.3" cy="770.9" rx="6.9" ry="6.7"/>
	<ellipse cx="324.9" cy="792.3" rx="6.9" ry="6.7"/>
	<ellipse cx="325.4" cy="809.4" rx="6.9" ry="6.7"/>
</g>
<g>
	<ellipse cx="346.1" cy="580.6" rx="6.9" ry="6.7"/>
	<ellipse cx="346.7" cy="600.8" rx="6.9" ry="6.7"/>
	<ellipse cx="347.2" cy="620.9" rx="6.9" ry="6.7"/>
	<ellipse cx="347.7" cy="638.6" rx="6.9" ry="6.7"/>
	<ellipse cx="349.2" cy="696.7" rx="6.9" ry="6.7"/>
	<ellipse cx="349.7" cy="716.2" rx="6.9" ry="6.7"/>
	<ellipse cx="348.1" cy="656.4" rx="6.9" ry="6.7"/>
	<ellipse cx="348.7" cy="677.1" rx="6.9" ry="6.7"/>
	<ellipse cx="350.2" cy="733.3" rx="6.9" ry="6.7"/>
	<ellipse cx="345.6" cy="560.5" rx="6.9" ry="6.7"/>
	<ellipse cx="350.6" cy="750.4" rx="6.9" ry="6.7"/>
	<ellipse cx="351.2" cy="771.8" rx="6.9" ry="6.7"/>
	<ellipse cx="351.7" cy="793.2" rx="6.9" ry="6.7"/>
	<ellipse cx="352.2" cy="810.2" rx="6.9" ry="6.7"/>
</g>
<g>
	<ellipse cx="370.4" cy="577" rx="6.9" ry="6.7"/>
	<ellipse cx="370.9" cy="597.1" rx="6.9" ry="6.7"/>
	<ellipse cx="371.4" cy="617.3" rx="6.9" ry="6.7"/>
	<ellipse cx="371.9" cy="635" rx="6.9" ry="6.7"/>
	<ellipse cx="373.4" cy="693" rx="6.9" ry="6.7"/>
	<ellipse cx="374" cy="712.5" rx="6.9" ry="6.7"/>
	<ellipse cx="372.4" cy="652.7" rx="6.9" ry="6.7"/>
	<ellipse cx="372.9" cy="673.4" rx="6.9" ry="6.7"/>
	<ellipse cx="374.4" cy="729.6" rx="6.9" ry="6.7"/>
	<ellipse cx="369.8" cy="556.8" rx="6.9" ry="6.7"/>
	<ellipse cx="374.9" cy="746.7" rx="6.9" ry="6.7"/>
	<ellipse cx="375.4" cy="768.1" rx="6.9" ry="6.7"/>
	<ellipse cx="376" cy="789.5" rx="6.9" ry="6.7"/>
	<ellipse cx="376.4" cy="806.6" rx="6.9" ry="6.7"/>
</g>
<g>
	<ellipse cx="394.6" cy="576.3" rx="6.9" ry="6.7"/>
	<ellipse cx="395.1" cy="596.5" rx="6.9" ry="6.7"/>
	<ellipse cx="395.7" cy="616.7" rx="6.9" ry="6.7"/>
	<ellipse cx="396.1" cy="634.4" rx="6.9" ry="6.7"/>
	<ellipse cx="397.7" cy="692.4" rx="6.9" ry="6.7"/>
	<ellipse cx="398.2" cy="711.9" rx="6.9" ry="6.7"/>
	<ellipse cx="396.6" cy="652.1" rx="6.9" ry="6.7"/>
	<ellipse cx="397.2" cy="672.8" rx="6.9" ry="6.7"/>
	<ellipse cx="398.6" cy="729" rx="6.9" ry="6.7"/>
	<ellipse cx="394.1" cy="556.2" rx="6.9" ry="6.7"/>
	<ellipse cx="399.1" cy="746.1" rx="6.9" ry="6.7"/>
	<ellipse cx="399.7" cy="767.5" rx="6.9" ry="6.7"/>
	<ellipse cx="400.2" cy="788.9" rx="6.9" ry="6.7"/>
	<ellipse cx="400.7" cy="806" rx="6.9" ry="6.7"/>
</g>
<g>
	<ellipse cx="419" cy="575.7" rx="6.9" ry="6.7"/>
	<ellipse cx="419.5" cy="595.9" rx="6.9" ry="6.7"/>
	<ellipse cx="420" cy="616" rx="6.9" ry="6.7"/>
	<ellipse cx="420.5" cy="633.7" rx="6.9" ry="6.7"/>
	<ellipse cx="422" cy="691.8" rx="6.9" ry="6.7"/>
	<ellipse cx="422.5" cy="711.3" rx="6.9" ry="6.7"/>
	<ellipse cx="421" cy="651.5" rx="6.9" ry="6.7"/>
	<ellipse cx="421.5" cy="672.2" rx="6.9" ry="6.7"/>
	<ellipse cx="423" cy="728.4" rx="6.9" ry="6.7"/>
	<ellipse cx="418.4" cy="555.6" rx="6.9" ry="6.7"/>
	<ellipse cx="423.4" cy="745.5" rx="6.9" ry="6.7"/>
	<ellipse cx="424" cy="766.9" rx="6.9" ry="6.7"/>
	<ellipse cx="424.6" cy="788.3" rx="6.9" ry="6.7"/>
	<ellipse cx="425" cy="805.4" rx="6.9" ry="6.7"/>
</g>
<g>
	<ellipse cx="443.4" cy="576.6" rx="6.9" ry="6.7"/>
	<ellipse cx="443.9" cy="596.8" rx="6.9" ry="6.7"/>
	<ellipse cx="444.4" cy="616.9" rx="6.9" ry="6.7"/>
	<ellipse cx="444.9" cy="634.7" rx="6.9" ry="6.7"/>
	<ellipse cx="446.4" cy="692.7" rx="6.9" ry="6.7"/>
	<ellipse cx="446.9" cy="712.2" rx="6.9" ry="6.7"/>
	<ellipse cx="445.4" cy="652.4" rx="6.9" ry="6.7"/>
	<ellipse cx="445.9" cy="673.1" rx="6.9" ry="6.7"/>
	<ellipse cx="447.4" cy="729.3" rx="6.9" ry="6.7"/>
	<ellipse cx="442.8" cy="556.5" rx="6.9" ry="6.7"/>
	<ellipse cx="447.8" cy="746.4" rx="6.9" ry="6.7"/>
	<ellipse cx="448.4" cy="767.8" rx="6.9" ry="6.7"/>
	<ellipse cx="449" cy="789.2" rx="6.9" ry="6.7"/>
	<ellipse cx="449.4" cy="806.3" rx="6.9" ry="6.7"/>
</g>
<g>
	<ellipse cx="468.3" cy="576" rx="6.9" ry="6.7"/>
	<ellipse cx="468.8" cy="596.2" rx="6.9" ry="6.7"/>
	<ellipse cx="469.4" cy="616.3" rx="6.9" ry="6.7"/>
	<ellipse cx="469.8" cy="634" rx="6.9" ry="6.7"/>
	<ellipse cx="471.4" cy="692" rx="6.9" ry="6.7"/>
	<ellipse cx="471.9" cy="711.6" rx="6.9" ry="6.7"/>
	<ellipse cx="470.3" cy="651.7" rx="6.9" ry="6.7"/>
	<ellipse cx="470.8" cy="672.5" rx="6.9" ry="6.7"/>
	<ellipse cx="472.3" cy="728.7" rx="6.9" ry="6.7"/>
	<ellipse cx="467.8" cy="555.9" rx="6.9" ry="6.7"/>
	<ellipse cx="472.8" cy="745.8" rx="6.9" ry="6.7"/>
	<ellipse cx="473.3" cy="767.2" rx="6.9" ry="6.7"/>
	<ellipse cx="473.9" cy="788.5" rx="6.9" ry="6.7"/>
	<ellipse cx="474.3" cy="805.6" rx="6.9" ry="6.7"/>
</g>
<g>
	<ellipse cx="495.1" cy="576.9" rx="6.9" ry="6.7"/>
	<ellipse cx="495.7" cy="597" rx="6.9" ry="6.7"/>
	<ellipse cx="496.2" cy="617.2" rx="6.9" ry="6.7"/>
	<ellipse cx="496.7" cy="634.9" rx="6.9" ry="6.7"/>
	<ellipse cx="498.2" cy="692.9" rx="6.9" ry="6.7"/>
	<ellipse cx="498.7" cy="712.4" rx="6.9" ry="6.7"/>
	<ellipse cx="497.1" cy="652.6" rx="6.9" ry="6.7"/>
	<ellipse cx="497.7" cy="673.4" rx="6.9" ry="6.7"/>
	<ellipse cx="499.2" cy="729.5" rx="6.9" ry="6.7"/>
	<ellipse cx="494.6" cy="556.7" rx="6.9" ry="6.7"/>
	<ellipse cx="499.6" cy="746.6" rx="6.9" ry="6.7"/>
	<ellipse cx="500.2" cy="768" rx="6.9" ry="6.7"/>
	<ellipse cx="500.7" cy="789.4" rx="6.9" ry="6.7"/>
	<ellipse cx="501.2" cy="806.5" rx="6.9" ry="6.7"/>
</g>
<g>
	<ellipse cx="524.4" cy="577.6" rx="6.9" ry="6.7"/>
	<ellipse cx="525" cy="597.8" rx="6.9" ry="6.7"/>
	<ellipse cx="525.5" cy="618" rx="6.9" ry="6.7"/>
	<ellipse cx="526" cy="635.7" rx="6.9" ry="6.7"/>
	<ellipse cx="527.5" cy="693.7" rx="6.9" ry="6.7"/>
	<ellipse cx="528" cy="713.2" rx="6.9" ry="6.7"/>
	<ellipse cx="526.4" cy="653.4" rx="6.9" ry="6.7"/>
	<ellipse cx="527" cy="674.1" rx="6.9" ry="6.7"/>
	<ellipse cx="528.5" cy="730.3" rx="6.9" ry="6.7"/>
	<ellipse cx="523.9" cy="557.5" rx="6.9" ry="6.7"/>
	<ellipse cx="528.9" cy="747.4" rx="6.9" ry="6.7"/>
	<ellipse cx="529.5" cy="768.8" rx="6.9" ry="6.7"/>
	<ellipse cx="530" cy="790.2" rx="6.9" ry="6.7"/>
	<ellipse cx="530.5" cy="807.3" rx="6.9" ry="6.7"/>
</g>
<g>
	<ellipse cx="548.7" cy="577" rx="6.9" ry="6.7"/>
	<ellipse cx="549.2" cy="597.2" rx="6.9" ry="6.7"/>
	<ellipse cx="549.7" cy="617.3" rx="6.9" ry="6.7"/>
	<ellipse cx="550.2" cy="635.1" rx="6.9" ry="6.7"/>
	<ellipse cx="551.7" cy="693.1" rx="6.9" ry="6.7"/>
	<ellipse cx="552.3" cy="712.6" rx="6.9" ry="6.7"/>
	<ellipse cx="550.7" cy="652.8" rx="6.9" ry="6.7"/>
	<ellipse cx="551.2" cy="673.5" rx="6.9" ry="6.7"/>
	<ellipse cx="552.7" cy="729.7" rx="6.9" ry="6.7"/>
	<ellipse cx="548.1" cy="556.9" rx="6.9" ry="6.7"/>
	<ellipse cx="553.2" cy="746.8" rx="6.9" ry="6.7"/>
	<ellipse cx="553.7" cy="768.2" rx="6.9" ry="6.7"/>
	<ellipse cx="554.3" cy="789.6" rx="6.9" ry="6.7"/>
	<ellipse cx="554.7" cy="806.7" rx="6.9" ry="6.7"/>
</g>
<g>
	<ellipse cx="573" cy="576.4" rx="6.9" ry="6.7"/>
	<ellipse cx="573.6" cy="596.6" rx="6.9" ry="6.7"/>
	<ellipse cx="574.1" cy="616.7" rx="6.9" ry="6.7"/>
	<ellipse cx="574.6" cy="634.4" rx="6.9" ry="6.7"/>
	<ellipse cx="576.1" cy="692.5" rx="6.9" ry="6.7"/>
	<ellipse cx="576.6" cy="712" rx="6.9" ry="6.7"/>
	<ellipse cx="575" cy="652.1" rx="6.9" ry="6.7"/>
	<ellipse cx="575.6" cy="672.9" rx="6.9" ry="6.7"/>
	<ellipse cx="577.1" cy="729.1" rx="6.9" ry="6.7"/>
	<ellipse cx="572.5" cy="556.3" rx="6.9" ry="6.7"/>
	<ellipse cx="577.5" cy="746.2" rx="6.9" ry="6.7"/>
	<ellipse cx="578.1" cy="767.6" rx="6.9" ry="6.7"/>
	<ellipse cx="578.6" cy="788.9" rx="6.9" ry="6.7"/>
	<ellipse cx="579.1" cy="806" rx="6.9" ry="6.7"/>
</g>
<g>
	<ellipse cx="597.4" cy="577.3" rx="6.9" ry="6.7"/>
	<ellipse cx="598" cy="597.5" rx="6.9" ry="6.7"/>
	<ellipse cx="598.5" cy="617.6" rx="6.9" ry="6.7"/>
	<ellipse cx="599" cy="635.3" rx="6.9" ry="6.7"/>
	<ellipse cx="600.5" cy="693.4" rx="6.9" ry="6.7"/>
	<ellipse cx="601" cy="712.9" rx="6.9" ry="6.7"/>
	<ellipse cx="599.4" cy="653.1" rx="6.9" ry="6.7"/>
	<ellipse cx="600" cy="673.8" rx="6.9" ry="6.7"/>
	<ellipse cx="601.4" cy="730" rx="6.9" ry="6.7"/>
	<ellipse cx="596.9" cy="557.2" rx="6.9" ry="6.7"/>
	<ellipse cx="601.9" cy="747.1" rx="6.9" ry="6.7"/>
	<ellipse cx="602.5" cy="768.5" rx="6.9" ry="6.7"/>
	<ellipse cx="603" cy="789.9" rx="6.9" ry="6.7"/>
	<ellipse cx="603.5" cy="807" rx="6.9" ry="6.7"/>
</g>
<g>
	<ellipse cx="622.4" cy="576.7" rx="6.9" ry="6.7"/>
	<ellipse cx="622.9" cy="596.9" rx="6.9" ry="6.7"/>
	<ellipse cx="623.4" cy="617" rx="6.9" ry="6.7"/>
	<ellipse cx="623.9" cy="634.7" rx="6.9" ry="6.7"/>
	<ellipse cx="625.4" cy="692.7" rx="6.9" ry="6.7"/>
	<ellipse cx="625.9" cy="712.3" rx="6.9" ry="6.7"/>
	<ellipse cx="624.4" cy="652.4" rx="6.9" ry="6.7"/>
	<ellipse cx="624.9" cy="673.2" rx="6.9" ry="6.7"/>
	<ellipse cx="626.4" cy="729.4" rx="6.9" ry="6.7"/>
	<ellipse cx="621.8" cy="556.5" rx="6.9" ry="6.7"/>
	<ellipse cx="626.8" cy="746.5" rx="6.9" ry="6.7"/>
	<ellipse cx="627.4" cy="767.8" rx="6.9" ry="6.7"/>
	<ellipse cx="628" cy="789.2" rx="6.9" ry="6.7"/>
	<ellipse cx="628.4" cy="806.3" rx="6.9" ry="6.7"/>
</g>
<g>
	<ellipse cx="649.2" cy="577.5" rx="6.9" ry="6.7"/>
	<ellipse cx="649.7" cy="597.7" rx="6.9" ry="6.7"/>
	<ellipse cx="650.3" cy="617.9" rx="6.9" ry="6.7"/>
	<ellipse cx="650.7" cy="635.6" rx="6.9" ry="6.7"/>
	<ellipse cx="652.3" cy="693.6" rx="6.9" ry="6.7"/>
	<ellipse cx="652.8" cy="713.1" rx="6.9" ry="6.7"/>
	<ellipse cx="651.2" cy="653.3" rx="6.9" ry="6.7"/>
	<ellipse cx="651.8" cy="674" rx="6.9" ry="6.7"/>
	<ellipse cx="653.2" cy="730.2" rx="6.9" ry="6.7"/>
	<ellipse cx="648.7" cy="557.4" rx="6.9" ry="6.7"/>
	<ellipse cx="653.7" cy="747.3" rx="6.9" ry="6.7"/>
	<ellipse cx="654.2" cy="768.7" rx="6.9" ry="6.7"/>
	<ellipse cx="654.8" cy="790.1" rx="6.9" ry="6.7"/>
	<ellipse cx="655.3" cy="807.2" rx="6.9" ry="6.7"/>
</g>
<ellipse transform="matrix(0.9992 -4.049721e-02 4.049721e-02 0.9992 -27.5869 18.1745)" class="st1" cx="434.8" cy="690" rx="109.4" ry="113.5"/>
<ellipse class="st2" cx="243.9" cy="775.5" rx="25.1" ry="24.6"/>
<ellipse class="st2" cx="627.3" cy="780.2" rx="25.1" ry="24.6"/>
<ellipse class="st3" cx="435.5" cy="687.7" rx="47.3" ry="52"/>
<rect x="432" y="278.9" transform="matrix(8.447343e-03 -1 1 8.447343e-03 -107.1802 973.9489)" width="11" height="524.2"/>
<g>
	<ellipse cx="524.7" cy="476.8" rx="17.6" ry="17.2"/>
	<path d="M528.8,456.1c-3.1,0-6.1,0-9.2,0c-0.3-2-0.7-4.1-1-6.1c3.7,0,7.3,0,11,0C529.4,452,529.1,454.1,528.8,456.1z"/>
	<path d="M540.8,460.6c-2.7-1.4-5.5-2.7-8.2-4.1c0.6-2,1.3-3.9,1.9-5.9c3.3,1.6,6.5,3.2,9.8,4.8C543.1,457.2,542,458.9,540.8,460.6z
		"/>
	<path d="M546.7,470.2c-1.2-2.8-2.4-5.5-3.6-8.3c1.8-1.1,3.6-2.2,5.3-3.3c1.4,3.3,2.9,6.6,4.3,9.9
		C550.7,469,548.7,469.6,546.7,470.2z"/>
	<path d="M545.8,482.7c0-2.8,0-5.6,0-8.4c2.1-0.3,4.2-0.6,6.2-0.9c0,3.3,0,6.7,0,10C550,483.2,547.9,483,545.8,482.7z"/>
	<path d="M540.4,491.5c1.7-2.5,3.4-5,5.1-7.5c1.9,0.9,3.8,1.7,5.7,2.6c-2,3-4.1,6-6.1,9C543.6,494.2,542,492.9,540.4,491.5z"/>
	<path d="M530.6,495.9c3-0.4,6.1-0.8,9.1-1.2c0.6,2,1.2,4,1.8,5.9c-3.6,0.5-7.3,0.9-10.9,1.4C530.7,500,530.7,497.9,530.6,495.9z"/>
	<path d="M516.3,457.9c-2.2,2.1-4.4,4.2-6.6,6.3c-1.7-1.2-3.4-2.5-5.1-3.7c2.6-2.5,5.3-5,7.9-7.5C513.8,454.6,515,456.2,516.3,457.9
		z"/>
	<path d="M507.2,467.7c-1.3,2.7-2.6,5.5-3.8,8.2c-2-0.6-4.1-1.1-6.1-1.7c1.5-3.3,3-6.5,4.6-9.8C503.6,465.5,505.4,466.6,507.2,467.7
		z"/>
	<path d="M503.4,478.5c0.9,2.9,1.8,5.8,2.7,8.6c-1.9,0.9-3.8,1.8-5.7,2.7c-1.1-3.4-2.1-6.9-3.2-10.3
		C499.3,479.1,501.4,478.8,503.4,478.5z"/>
	<path d="M509.1,489.7c2.4,1.9,4.8,3.7,7.2,5.6c-1,1.8-2.1,3.6-3.1,5.4c-2.9-2.2-5.7-4.5-8.6-6.7
		C506.1,492.6,507.6,491.2,509.1,489.7z"/>
	<path d="M517.9,497.7c3.1,0,6.1,0,9.2,0c0.3,2,0.7,4.1,1,6.1c-3.7,0-7.3,0-11,0C517.3,501.7,517.6,499.7,517.9,497.7z"/>
</g>
<g>
	<ellipse cx="446.2" cy="476.9" rx="17.6" ry="17.2"/>
	<path d="M450.3,456.2c-3.1,0-6.1,0-9.2,0c-0.3-2-0.7-4.1-1-6.1c3.7,0,7.3,0,11,0C450.8,452.1,450.5,454.2,450.3,456.2z"/>
	<path d="M462.2,460.6c-2.7-1.4-5.5-2.7-8.2-4.1c0.6-2,1.3-3.9,1.9-5.9c3.3,1.6,6.5,3.2,9.8,4.8
		C464.6,457.2,463.4,458.9,462.2,460.6z"/>
	<path d="M468.1,470.3c-1.2-2.8-2.4-5.5-3.6-8.3c1.8-1.1,3.6-2.2,5.3-3.3c1.4,3.3,2.9,6.6,4.3,9.9
		C472.1,469.1,470.1,469.7,468.1,470.3z"/>
	<path d="M467.3,482.8c0-2.8,0-5.6,0-8.4c2.1-0.3,4.2-0.6,6.2-0.9c0,3.3,0,6.7,0,10C471.4,483.3,469.3,483.1,467.3,482.8z"/>
	<path d="M461.8,491.6c1.7-2.5,3.4-5,5.1-7.5c1.9,0.9,3.8,1.7,5.7,2.6c-2,3-4.1,6-6.1,9C465,494.3,463.4,493,461.8,491.6z"/>
	<path d="M452.1,495.9c3-0.4,6.1-0.8,9.1-1.2c0.6,2,1.2,4,1.8,5.9c-3.6,0.5-7.3,0.9-10.9,1.4C452.1,500,452.1,498,452.1,495.9z"/>
	<path d="M437.7,458c-2.2,2.1-4.4,4.2-6.6,6.3c-1.7-1.2-3.4-2.5-5.1-3.7c2.6-2.5,5.3-5,7.9-7.5C435.2,454.7,436.5,456.3,437.7,458z"
		/>
	<path d="M428.6,467.8c-1.3,2.7-2.6,5.5-3.8,8.2c-2-0.6-4.1-1.1-6.1-1.7c1.5-3.3,3-6.5,4.6-9.8C425,465.6,426.8,466.7,428.6,467.8z"
		/>
	<path d="M424.9,478.5c0.9,2.9,1.8,5.8,2.7,8.6c-1.9,0.9-3.8,1.8-5.7,2.7c-1.1-3.4-2.1-6.9-3.2-10.3
		C420.7,479.2,422.8,478.9,424.9,478.5z"/>
	<path d="M430.5,489.8c2.4,1.9,4.8,3.7,7.2,5.6c-1,1.8-2.1,3.6-3.1,5.4c-2.9-2.2-5.7-4.5-8.6-6.7C427.6,492.7,429,491.2,430.5,489.8
		z"/>
	<path d="M439.3,497.8c3.1,0,6.1,0,9.2,0c0.3,2,0.7,4.1,1,6.1c-3.7,0-7.3,0-11,0C438.8,501.8,439,499.8,439.3,497.8z"/>
</g>
<g>
	<ellipse cx="374.2" cy="474.6" rx="17.6" ry="17.2"/>
	<path d="M378.3,453.9c-3.1,0-6.1,0-9.2,0c-0.3-2-0.7-4.1-1-6.1c3.7,0,7.3,0,11,0C378.8,449.8,378.5,451.9,378.3,453.9z"/>
	<path d="M390.2,458.4c-2.7-1.4-5.5-2.7-8.2-4.1c0.6-2,1.3-3.9,1.9-5.9c3.3,1.6,6.5,3.2,9.8,4.8
		C392.6,454.9,391.4,456.7,390.2,458.4z"/>
	<path d="M396.1,468c-1.2-2.8-2.4-5.5-3.6-8.3c1.8-1.1,3.6-2.2,5.3-3.3c1.4,3.3,2.9,6.6,4.3,9.9C400.1,466.8,398.1,467.4,396.1,468z
		"/>
	<path d="M395.2,480.5c0-2.8,0-5.6,0-8.4c2.1-0.3,4.2-0.6,6.2-0.9c0,3.3,0,6.7,0,10C399.4,481,397.3,480.8,395.2,480.5z"/>
	<path d="M389.8,489.3c1.7-2.5,3.4-5,5.1-7.5c1.9,0.9,3.8,1.7,5.7,2.6c-2,3-4.1,6-6.1,9C393,492,391.4,490.7,389.8,489.3z"/>
	<path d="M380.1,493.6c3-0.4,6.1-0.8,9.1-1.2c0.6,2,1.2,4,1.8,5.9c-3.6,0.5-7.3,0.9-10.9,1.4C380.1,497.7,380.1,495.7,380.1,493.6z"
		/>
	<path d="M365.7,455.7c-2.2,2.1-4.4,4.2-6.6,6.3c-1.7-1.2-3.4-2.5-5.1-3.7c2.6-2.5,5.3-5,7.9-7.5C363.2,452.4,364.5,454,365.7,455.7
		z"/>
	<path d="M356.6,465.5c-1.3,2.7-2.6,5.5-3.8,8.2c-2-0.6-4.1-1.1-6.1-1.7c1.5-3.3,3-6.5,4.6-9.8C353,463.3,354.8,464.4,356.6,465.5z"
		/>
	<path d="M352.9,476.2c0.9,2.9,1.8,5.8,2.7,8.6c-1.9,0.9-3.8,1.8-5.7,2.7c-1.1-3.4-2.1-6.9-3.2-10.3
		C348.7,476.9,350.8,476.6,352.9,476.2z"/>
	<path d="M358.5,487.5c2.4,1.9,4.8,3.7,7.2,5.6c-1,1.8-2.1,3.6-3.1,5.4c-2.9-2.2-5.7-4.5-8.6-6.7C355.5,490.4,357,489,358.5,487.5z"
		/>
	<path d="M367.3,495.5c3.1,0,6.1,0,9.2,0c0.3,2,0.7,4.1,1,6.1c-3.7,0-7.3,0-11,0C366.8,499.5,367,497.5,367.3,495.5z"/>
</g>
<rect x="521.2" y="411.8" width="134.9" height="24.8"/>
<rect x="531.6" y="419.3" class="st4" width="22.8" height="4.9"/>
<rect x="561.1" y="419.3" class="st4" width="22.8" height="4.9"/>
<rect x="591.5" y="419.3" class="st4" width="22.8" height="4.9"/>
<rect x="621.8" y="419.3" class="st4" width="22.8" height="4.9"/>
<polygon class="st5" points="716.7,499.8 768.3,467.4 763.8,452.6 712.2,485 "/>
<polygon class="st5" points="716.2,747.6 769.1,775.6 773,760.4 720.2,732.4 "/>
<polygon class="st5" points="716.2,614 772.5,617.3 773,601.2 716.7,597.9 "/>
<polygon class="st5" points="140.8,490.8 94.5,458.4 98.6,443.6 144.8,476 "/>
<polygon class="st5" points="145.1,731.3 101.4,771.6 96.3,757.6 140,717.3 "/>
<polygon class="st5" points="145.1,602.7 94.6,606 94.2,589.8 144.7,586.6 "/>
</svg>
