<?xml version="1.0" encoding="utf-8"?>
<!-- Generator: Adobe Illustrator 27.7.0, SVG Export Plug-In . SVG Version: 6.00 Build 0)  -->
<svg version="1.1" id="Layer_2" xmlns="http://www.w3.org/2000/svg" xmlns:xlink="http://www.w3.org/1999/xlink" x="0px" y="0px"
	 viewBox="0 0 612 792" style="enable-background:new 0 0 612 792;" xml:space="preserve">
<style type="text/css">
	.st0{fill:none;}
	.st1{fill:#2E3192;stroke:#58595B;stroke-width:2;stroke-miterlimit:10;}
	.st2{stroke:#000000;stroke-miterlimit:10;}
	.st3{fill:#8B5E3C;}
	.st4{fill:none;stroke:#000000;stroke-miterlimit:10;}
	.st5{stroke:#000000;stroke-width:0.75;stroke-miterlimit:10;}
	.st6{fill:#FFFFFF;stroke:#E6E7E8;stroke-miterlimit:10;}
	.st7{fill:#303030;stroke:#000000;stroke-width:0.75;stroke-miterlimit:10;}
	.st8{fill:#FFFFFF;stroke:#000000;stroke-width:0.75;stroke-miterlimit:10;}
	.st9{stroke:#808285;stroke-width:0.25;stroke-miterlimit:10;}
	.st10{stroke:#58595B;stroke-width:0.25;stroke-miterlimit:10;}
	.st11{fill:#754C29;stroke:#58595B;stroke-width:0.25;stroke-miterlimit:10;}
	.st12{fill:#754C29;stroke:#000000;stroke-width:0.25;stroke-miterlimit:10;}
	.st13{stroke:#000000;stroke-width:0.25;stroke-miterlimit:10;}
	.st14{fill:none;stroke:#58595B;stroke-width:4;stroke-miterlimit:10;}
	.st15{fill:#FFFFFF;}
	.st16{fill:#414042;}
	.st17{fill:#6D6E71;stroke:#000000;stroke-miterlimit:10;}
</style>
<line class="st0" x1="78.9" y1="161.7" x2="79.1" y2="161.9"/>
<path class="st1" d="M137.1,294.4c21.9-12.9,43.9-25.8,65.8-38.6l38.4,141.9c7.8,35.8,15.7,71.6,23.5,107.4
	c-18.3-3.1-36.5-6.2-54.8-9.3l2.2-81.9L172.8,325l4.2,110.8c5.1,23.5,10.1,47,15.2,70.4c-18.3-1.2-36.7-2.3-55-3.5
	C137.1,433.3,137.1,363.9,137.1,294.4z"/>
<g>
	<path class="st2" d="M200.4,130.2c-6.6,17.4-28.3,29.9-51,29.5c-24.2-0.4-46-15.2-51.2-35.2c-7.2-27.4,19.6-55.5,48.4-56.8
		C180.5,66.1,211,102.1,200.4,130.2z"/>
	<ellipse class="st3" cx="147.7" cy="131.6" rx="39.2" ry="34.9"/>
	<ellipse cx="132.2" cy="123.3" rx="3.3" ry="3.6"/>
	<ellipse cx="162.5" cy="123.3" rx="3.3" ry="3.6"/>
	<line class="st0" x1="138.9" y1="143.6" x2="144.8" y2="144.2"/>
	<line class="st0" x1="153.5" y1="143.9" x2="159.5" y2="144.5"/>
	<line x1="153.5" y1="143.9" x2="141.9" y2="144.2"/>
	<line class="st4" x1="127.1" y1="113.7" x2="137.1" y2="113.7"/>
	<line class="st4" x1="157.5" y1="113.7" x2="167.5" y2="113.7"/>
	<path class="st5" d="M140.2,135.8c0.9-0.5,6.4-3.5,12.5-1.2c4.4,1.7,10.2,9.9,7.5,8.5c-2.9-1.5-24.8-2-25.7-0.4
		C133.2,145,138.1,137,140.2,135.8z"/>
	<path class="st2" d="M184.8,135.8c-2.4-0.4-4.8-0.7-7.2-1.1c1.5-8.1,3-16.2,4.5-24.2c2.2,2.4,4.4,4.7,6.6,7.1
		c-1.1,1.7-2.2,3.9-3,6.5C184.3,128.8,184.4,133,184.8,135.8z"/>
	<path class="st2" d="M113.5,136c2.4-0.4,4.8-0.7,7.2-1.1c-1.5-8.1-3-16.2-4.5-24.2c-2.2,2.4-4.4,4.7-6.6,7.1c1.1,1.7,2.2,3.9,3,6.5
		C114.1,129,113.9,133.2,113.5,136z"/>
	<polygon class="st5" points="153.8,150.1 146.9,159.7 141.6,150.1 	"/>
</g>
<path class="st5" d="M212.1,325.2c-16.8-6.7-33.6-13.4-50.4-20.1c41.8-23.7,83.7-47.3,125.5-71c13.6,5,27.2,10.1,40.8,15.1
	C289.4,274.5,250.7,299.9,212.1,325.2z"/>
<path class="st6" d="M207.5,301.8c-7.8-3.1-15.6-6.3-23.4-9.4c31.7-18.1,63.5-36.3,95.2-54.4c7.6,2.7,15.2,5.4,22.9,8.1
	C270.6,264.7,239.1,283.2,207.5,301.8z"/>
<path class="st7" d="M210.1,320.1c-0.4,5.8-0.7,11.5-1.1,17.3c39-24.9,78-49.7,116.9-74.6c0.7-4.5,1.4-9,2-13.5
	C288.7,272.8,249.4,296.4,210.1,320.1z"/>
<path class="st7" d="M210.1,337.1c0.4-1.5,0-17.1,0-17.1c-16.3-5-32.6-10-48.9-15c-1,4.9-2.1,9.9-3.1,14.8
	C175.5,325.6,192.8,331.4,210.1,337.1z"/>
<path class="st8" d="M357.1,344.9"/>
<path class="st5" d="M209.8,301c-5.2-2.7-10.4-5.5-15.6-8.2c0.8-0.5,1.6-1.1,2.4-1.6c5.7,2.9,11.5,5.9,17.2,8.8
	C212.5,300.3,211.1,300.6,209.8,301z"/>
<path class="st5" d="M217,296.6c-4.9-3.2-9.9-6.4-14.8-9.5c0.8-0.5,1.7-0.9,2.5-1.4c5.5,3.4,10.9,6.9,16.4,10.3
	C219.7,296.2,218.3,296.4,217,296.6z"/>
<path class="st5" d="M224.1,293.2c-4.9-3.2-9.9-6.4-14.8-9.5c0.8-0.5,1.7-0.9,2.5-1.4c5.5,3.4,10.9,6.9,16.4,10.3
	C226.8,292.7,225.5,293,224.1,293.2z"/>
<path class="st5" d="M233.8,287.1c-4.9-3.2-9.9-6.4-14.8-9.5c0.8-0.5,1.7-0.9,2.5-1.4c5.5,3.4,10.9,6.9,16.4,10.3
	C236.6,286.7,235.2,286.9,233.8,287.1z"/>
<path class="st5" d="M243.3,282c-4.9-3.2-9.9-6.4-14.8-9.5c0.8-0.5,1.7-0.9,2.5-1.4c5.5,3.4,10.9,6.9,16.4,10.3
	C246,281.5,244.7,281.7,243.3,282z"/>
<path class="st5" d="M250.4,278.5c-4.9-3.2-9.9-6.4-14.8-9.5c0.8-0.5,1.7-0.9,2.5-1.4c5.5,3.4,10.9,6.9,16.4,10.3
	C253.2,278.1,251.8,278.3,250.4,278.5z"/>
<path class="st5" d="M260.6,270.3c-4.9-3.1-9.9-6.2-14.8-9.3c0.8-0.5,1.7-0.9,2.5-1.4c5.5,3.4,10.9,6.7,16.4,10.1
	C263.4,269.9,262,270.1,260.6,270.3z"/>
<path class="st5" d="M270.1,265.9c-4.9-3.2-9.9-6.4-14.8-9.5c0.8-0.5,1.7-0.9,2.5-1.4c5.5,3.4,10.9,6.9,16.4,10.3
	C272.8,265.4,271.4,265.7,270.1,265.9z"/>
<path class="st5" d="M279.5,259.7c-4.9-3.2-9.9-6.4-14.8-9.5c0.8-0.5,1.7-0.9,2.5-1.4c5.5,3.4,10.9,6.9,16.4,10.3
	C282.3,259.3,280.9,259.5,279.5,259.7z"/>
<path class="st5" d="M286.6,255.6c-4.9-3.2-9.9-6.4-14.8-9.5c0.8-0.5,1.7-0.9,2.5-1.4c5.5,3.4,10.9,6.9,16.4,10.3
	C289.3,255.2,288,255.4,286.6,255.6z"/>
<path class="st5" d="M293.1,251.7c-5.1-2.8-10.3-5.6-15.4-8.4c0.8-0.5,1.6-1.1,2.4-1.6c5.7,3,11.4,6,17.1,9.1
	C295.8,251.1,294.4,251.4,293.1,251.7z"/>
<path class="st9" d="M310.4,250.9c0,0.4-1.8,0.7-1.8,0.7s-1.8-0.3-1.8-0.7s0.8-0.7,1.8-0.7C309.6,250.1,310.4,250.5,310.4,250.9z
	 M306.8,250.9c0,0.5-0.1,0.9,0,1.4c0.1,0.5,3.6,0.5,3.7,0c0-0.5,0-0.9,0-1.4C309.5,251.4,308.3,251.9,306.8,250.9z M308.7,251.6"/>
<path class="st5" d="M296.1,255.6c0,0.7-2.4,1.3-2.4,1.3s-2.4-0.6-2.4-1.3s1.1-1.3,2.4-1.3C295,254.3,296.1,254.9,296.1,255.6z
	 M291.1,255.6c0,0.8-0.1,1.6,0,2.4c0.1,1,5,0.9,5.1,0.1c0-0.8,0-1.6,0-2.5C294.8,256.6,293.2,257.3,291.1,255.6z M293.7,256.9"/>
<path class="st10" d="M302,254.3c0,0.5-1.8,0.9-1.8,0.9s-1.8-0.4-1.8-0.9c0-0.5,0.8-0.9,1.8-0.9C301.2,253.3,302,253.7,302,254.3z
	 M298.3,254.3c0,0.6-0.1,1.1,0,1.7c0.1,0.7,3.7,0.7,3.8,0.1c0-0.6,0-1.2,0-1.8C301,255,299.8,255.5,298.3,254.3z M300.2,255.2"/>
<path class="st10" d="M305.7,246.7c0,0.5-1.8,0.9-1.8,0.9s-1.8-0.4-1.8-0.9c0-0.5,0.8-0.9,1.8-0.9
	C304.9,245.7,305.7,246.2,305.7,246.7z M302,246.7c0,0.6-0.1,1.1,0,1.7c0.1,0.7,3.7,0.7,3.8,0.1c0-0.6,0-1.2,0-1.8
	C304.8,247.4,303.5,247.9,302,246.7z M303.9,247.6"/>
<path class="st10" d="M293,259.2c0,0.5-1.8,0.9-1.8,0.9s-1.8-0.4-1.8-0.9c0-0.5,0.8-0.9,1.8-0.9S293,258.7,293,259.2z M289.4,259.2
	c0,0.6-0.1,1.1,0,1.7c0.1,0.7,3.7,0.7,3.8,0.1c0-0.6,0-1.2,0-1.8C292.1,260,290.9,260.5,289.4,259.2z M291.2,260.2"/>
<path class="st10" d="M124.5,160.3l-21.8,26.8l22.5,28.7l8.2,40.1l-2.2,52.8c26.1-10.2,52.1-20.3,78.2-30.5
	c-5-31.6-9.9-63.1-14.9-94.7c-6.1-9.4-12.1-18.9-18.2-28.3C162.4,165.9,146,169.9,124.5,160.3z"/>
<g>
	
		<ellipse transform="matrix(4.162479e-02 -0.9991 0.9991 4.162479e-02 -98.4602 461.9443)" class="st11" cx="191.6" cy="282.3" rx="5.6" ry="18.4"/>
	<path class="st10" d="M102.9,180.2c0,0,11.9-6.2,17.1,1.2c0,0,22.3,73,23,74.3c-0.1,5.8,49.1,22.2,49.3,19.5c-1,4.6-2,9.3-3,13.9
		c-7.7-2.3-38.5,3.4-56.5-13.6c-24.4-23-31.8-63.3-35.6-84.3L102.9,180.2z"/>
</g>
<g>
	
		<ellipse transform="matrix(8.042789e-02 -0.9968 0.9968 8.042789e-02 -33.1969 485.6237)" class="st12" cx="246.6" cy="260.8" rx="4.9" ry="14.8"/>
	<path class="st13" d="M177.3,169.4c0,0,9.7-5.1,13.7,1.5c0,0,16.5,64.3,17.1,65.4c-0.2,5.1,39,20.6,39.2,18.3c-0.9,4-1.8,8-2.6,12
		c-6.1-2.2-30.9,2-45-13.3c-19.1-20.7-24.4-56-27-74.5L177.3,169.4z"/>
</g>
<path class="st10" d="M388.1,347.3"/>
<path class="st14" d="M264.7,373.6"/>
<path class="st14" d="M305.7,266.9"/>
<path class="st14" d="M211.4,328.4"/>
<path class="st14" d="M264.7,373.6"/>
<path class="st14" d="M264.7,373.6"/>
<path class="st14" d="M282,285.4"/>
<path class="st14" d="M222.4,321.9"/>
<path class="st14" d="M264.7,373.6"/>
<path class="st5" d="M140.1,126.1c-5.4,2.3-10.6,2.3-15.6,0.7c-3.4-4.2-4.1-8.4-3.2-12.7c7.4-3.2,14.8-3.3,22.3-0.6
	C145,119.2,142.6,123.8,140.1,126.1z"/>
<path class="st5" d="M172.4,125.8c-5.3,1.9-10.2,1.5-14.8-0.5c-3-4.4-3.2-8.7-2.1-12.9c7.2-2.7,14.3-2.2,21.2,1.1
	C177.6,119.2,174.9,123.7,172.4,125.8z"/>
<path class="st5" d="M140,119.8c8-3.7,15.5-3.8,22,1.1"/>
<path class="st8" d="M420.4,347.9"/>
<path class="st8" d="M475.4,273.2"/>
<path class="st8" d="M380.7,342.8"/>
<path class="st7" d="M352.3,282.1"/>
<path class="st7" d="M323.3,349.7"/>
<path class="st5" d="M341.5,339.1"/>
<path class="st15" d="M411.6,364.2"/>
<path class="st15" d="M408.8,324"/>
<path class="st15" d="M381.4,365.4"/>
<path class="st6" d="M361.4,317.2"/>
<path class="st6" d="M326,329.2"/>
<path class="st10" d="M235.5,298.7c0,0.5-1.8,0.9-1.8,0.9s-1.8-0.4-1.8-0.9c0-0.5,0.8-0.9,1.8-0.9
	C234.7,297.8,235.5,298.2,235.5,298.7z M231.9,298.7c0,0.6-0.1,1.1,0,1.7c0.1,0.7,3.7,0.7,3.8,0.1c0-0.6,0-1.2,0-1.8
	C234.6,299.5,233.4,300,231.9,298.7z M233.7,299.7"/>
<path class="st10" d="M226.1,301.1c0,0.5-1.8,0.9-1.8,0.9s-1.8-0.4-1.8-0.9c0-0.5,0.8-0.9,1.8-0.9
	C225.3,300.2,226.1,300.6,226.1,301.1z M222.5,301.1c0,0.6-0.1,1.1,0,1.7c0.1,0.7,3.7,0.7,3.8,0.1c0-0.6,0-1.2,0-1.8
	C225.2,301.9,224,302.4,222.5,301.1z M224.3,302.1"/>
<path class="st10" d="M220.6,305.8c0,0.5-1.8,0.9-1.8,0.9s-1.8-0.4-1.8-0.9c0-0.5,0.8-0.9,1.8-0.9
	C219.8,304.8,220.6,305.2,220.6,305.8z M216.9,305.8c0,0.6-0.1,1.1,0,1.7c0.1,0.7,3.7,0.7,3.8,0.1c0-0.6,0-1.2,0-1.8
	C219.6,306.5,218.4,307,216.9,305.8z M218.8,306.7"/>
<path class="st9" d="M206.2,308.7c0,0.4-1.8,0.7-1.8,0.7s-1.8-0.3-1.8-0.7s0.8-0.7,1.8-0.7C205.4,308,206.2,308.3,206.2,308.7z
	 M202.6,308.7c0,0.5-0.1,0.9,0,1.4c0.1,0.5,3.6,0.5,3.7,0c0-0.5,0-0.9,0-1.4C205.3,309.3,204.1,309.7,202.6,308.7z M204.4,309.5"/>
<path class="st16" d="M118,167.7c-1.5,0.3-6.1,1.3-9.9,5.3c-2.8,3-3.8,6.2-4.1,7.8c11.4,18.5,24.4,39.6,35.8,58.1
	c14.2,23.1,28.4,46.1,42.5,69.2l8.8-4.2c-12.5-19.5-25.2-40.8-37.7-63.9C139.8,214.8,128.1,190.5,118,167.7z"/>
<path class="st17" d="M184.1,307.3c1.8,1.6,3.6,3.2,5.4,4.8c0.8-0.5,1.7-0.9,2.5-1.4c-0.6-2.2-1.2-4.5-1.8-6.7
	C188.2,305.1,186.2,306.2,184.1,307.3z"/>
</svg>
