<?xml version="1.0" encoding="utf-8"?>
<!-- Generator: Adobe Illustrator 27.7.0, SVG Export Plug-In . SVG Version: 6.00 Build 0)  -->
<svg version="1.1" id="Layer_2" xmlns="http://www.w3.org/2000/svg" xmlns:xlink="http://www.w3.org/1999/xlink" x="0px" y="0px"
	 viewBox="0 0 612 827.1" style="enable-background:new 0 0 612 827.1;" xml:space="preserve">
<style type="text/css">
	.st0{fill:none;}
	.st1{fill:#8B5E3C;stroke:#603913;stroke-width:0.25;stroke-miterlimit:10;}
	.st2{stroke:#58595B;stroke-width:0.25;stroke-miterlimit:10;}
	.st3{fill:#AFCCDF;stroke:#58595B;stroke-width:2;stroke-miterlimit:10;}
	.st4{fill:#8B5E3C;}
	.st5{fill:#8B5E3C;stroke:#4F3320;stroke-width:0.25;stroke-miterlimit:10;}
	.st6{fill:#FFFFFF;stroke:#000000;stroke-width:0.75;stroke-miterlimit:10;}
	.st7{fill:none;stroke:#58595B;stroke-width:4;stroke-miterlimit:10;}
	.st8{fill:#303030;stroke:#000000;stroke-width:0.75;stroke-miterlimit:10;}
	.st9{fill:#FFFFFF;}
	.st10{stroke:#000000;stroke-width:0.75;stroke-miterlimit:10;}
	.st11{fill:#FFFFFF;stroke:#E6E7E8;stroke-miterlimit:10;}
	.st12{stroke:#808285;stroke-width:0.25;stroke-miterlimit:10;}
	.st13{fill:#754C29;stroke:#58595B;stroke-width:0.25;stroke-miterlimit:10;}
	.st14{stroke:#603913;stroke-width:0.25;stroke-miterlimit:10;}
	.st15{fill:none;stroke:#603913;stroke-width:0.25;stroke-miterlimit:10;}
	.st16{fill:none;stroke:#603913;stroke-width:0.75;stroke-miterlimit:10;}
</style>
<line class="st0" x1="410.7" y1="173.4" x2="410.5" y2="173.6"/>
<ellipse class="st1" cx="310.4" cy="37.2" rx="8.8" ry="18"/>
<rect x="307.5" y="48.7" transform="matrix(0.9964 -8.525002e-02 8.525002e-02 0.9964 -9.4683 27.5286)" class="st2" width="20.3" height="151.8"/>
<path class="st3" d="M348.2,292.6c-19.7-2.4-39.3-4.8-59-7.1c-9.8,37.2-19,77.3-27,120c-7.1,37.7-12.5,73.7-16.7,107.9
	c15.4-3.6,30.9-7.1,46.3-10.7l-4.4-81.8l30.8-89.8l-0.1,110.8c-3.6,23.6-7.2,47.2-10.8,70.8c15.6-1.7,31.1-3.3,46.7-5
	c-1.3-45.8-28.5-98.8-3.8-137.4C366.9,344.5,364.5,318.6,348.2,292.6z"/>
<path class="st2" d="M356.4,175.2c5.3,8.6,10.5,17.3,15.8,25.9c-2.7,11.1-5.4,22.2-8.1,33.3l-8.1,45.4c2.9,10.6,5.8,21.3,8.6,31.9
	c-30.4-1.9-60.8-3.8-91.3-5.6c11.8-20.6,13.7-36.9,13.2-48c-0.5-11.3-3.5-17.2-1.1-28.6c2.2-10.1,6.1-17.5,16.1-28.4
	c8.2-8.9,16.3-17.9,24.5-26.8c2.4,1.1,5.3,2,8.5,2.7C343.9,178.8,351.7,176.9,356.4,175.2z"/>
<path class="st4" d="M355.2,179.4h-27.7c1.7-5.5,1.7-10.9,0-16.4h27.7C353.5,168.9,353.2,174.4,355.2,179.4z"/>
<ellipse class="st5" cx="342.6" cy="128.6" rx="32.9" ry="42.6"/>
<line class="st0" x1="350.7" y1="155.3" x2="344.7" y2="155.9"/>
<line class="st0" x1="336.1" y1="155.6" x2="330.1" y2="156.2"/>
<line x1="336.1" y1="155.6" x2="347.7" y2="155.9"/>
<path class="st6" d="M304.5,400.9"/>
<path class="st2" d="M299.5,507.6c-5.5-0.5-11-1-16.5-1.5l-80.7-216.5l12-5.3C242.7,358.8,271.1,433.2,299.5,507.6z"/>
<path class="st2" d="M272.7,403.8"/>
<path class="st2" d="M158.6,481.7c5.8,2.3,11.6,4.5,17.4,6.8l130.4-175.2l-10.1-8.9C250.4,363.5,204.5,422.6,158.6,481.7z"/>
<path class="st7" d="M303,404.3"/>
<path class="st7" d="M366.2,363.5"/>
<path class="st7" d="M303,404.3"/>
<path class="st7" d="M303,404.3"/>
<path class="st7" d="M355.2,357.1"/>
<path class="st7" d="M303,404.3"/>
<path class="st6" d="M239.7,404.5"/>
<path class="st6" d="M105.3,316.4"/>
<path class="st8" d="M350.9,411"/>
<path class="st9" d="M241,400.7"/>
<path class="st9" d="M269.6,401.9"/>
<g>
	<path class="st10" d="M324.2,373.8c24-8.9,48-17.8,72-26.8c-59.8-31.5-119.5-63-179.3-94.5c-19.4,6.7-38.9,13.4-58.3,20.1
		C213.8,306.3,269,340.1,324.2,373.8z"/>
	<path class="st11" d="M330.7,342.6c11.1-4.2,22.3-8.4,33.4-12.5c-45.3-24.2-90.7-48.3-136-72.5c-10.9,3.6-21.8,7.2-32.7,10.8
		C240.6,293.2,285.7,317.9,330.7,342.6z"/>
	<path class="st8" d="M328.1,368.3c-0.2,7.3-0.3,14.5-0.5,21.8c-55.4-33.1-110.8-66.3-166.2-99.4c-1-6-1.9-12-2.9-18
		C215.1,304.5,271.6,336.4,328.1,368.3z"/>
	<path class="st8" d="M328.7,390.5c-0.6-2-0.6-22.2-0.6-22.2c23-7,45.9-14,68.9-21c1.6,6.4,3.3,12.8,4.9,19.2
		C377.5,374.5,353.1,382.5,328.7,390.5z"/>
	<path class="st10" d="M261.2,306.5c7-4.3,14-8.6,21-12.9c-1.2-0.6-2.4-1.2-3.6-1.8c-7.7,4.7-15.5,9.3-23.2,14
		C257.3,306,259.2,306.2,261.2,306.5z"/>
	<path class="st10" d="M207.6,275.8c7.2-4,14.4-7.9,21.7-11.9c-1.2-0.7-2.4-1.3-3.5-2c-8,4.3-16,8.6-23.9,12.9
		C203.8,275.1,205.7,275.5,207.6,275.8z"/>
	<path class="st10" d="M310,332.1c7-4.2,14.1-8.5,21.1-12.7c-1.2-0.6-2.4-1.3-3.6-1.9c-7.8,4.6-15.6,9.1-23.4,13.7
		C306.1,331.6,308,331.9,310,332.1z"/>
	<path class="st10" d="M301.6,327.2c7-4.2,14.1-8.5,21.1-12.7c-1.2-0.6-2.4-1.3-3.6-1.9c-7.8,4.6-15.6,9.1-23.4,13.7
		C297.7,326.6,299.7,326.9,301.6,327.2z"/>
	<path class="st10" d="M284.4,318.9c7-4.2,14.1-8.5,21.1-12.7c-1.2-0.6-2.4-1.3-3.6-1.9c-7.8,4.6-15.6,9.1-23.4,13.7
		C280.5,318.3,282.4,318.6,284.4,318.9z"/>
	<path class="st10" d="M269.4,311.6c7-4.2,14.1-8.5,21.1-12.7c-1.2-0.6-2.4-1.3-3.6-1.9c-7.8,4.6-15.6,9.1-23.4,13.7
		C265.5,311,267.5,311.3,269.4,311.6z"/>
	<path class="st10" d="M250.4,298.9c7-4.1,14.1-8.3,21.1-12.4c-1.2-0.6-2.4-1.2-3.6-1.9c-7.8,4.5-15.6,9-23.4,13.4
		C246.5,298.3,248.4,298.6,250.4,298.9z"/>
	<path class="st10" d="M238.4,293.9c7-4.2,14.1-8.5,21.1-12.7c-1.2-0.6-2.4-1.3-3.6-1.9c-7.8,4.6-15.6,9.1-23.4,13.7
		C234.4,293.3,236.4,293.6,238.4,293.9z"/>
	<path class="st10" d="M227.9,286.6c7-4.2,14.1-8.5,21.1-12.7c-1.2-0.6-2.4-1.3-3.6-1.9c-7.8,4.6-15.6,9.1-23.4,13.7
		C224,286.1,225.9,286.3,227.9,286.6z"/>
	<path class="st10" d="M216.7,281.1c7-4.2,14.1-8.5,21.1-12.7c-1.2-0.6-2.4-1.3-3.6-1.9c-7.8,4.6-15.6,9.1-23.4,13.7
		C212.8,280.5,214.7,280.8,216.7,281.1z"/>
	<path class="st10" d="M321.3,339c6.8-4.6,13.6-9.2,20.3-13.7c-1.2-0.6-2.5-1.1-3.7-1.7c-7.5,5-15,9.9-22.5,14.9
		C317.4,338.6,319.3,338.8,321.3,339z"/>
	<path class="st12" d="M186.3,273.8c1.4,0,2.6,0.4,2.6,1c0,0.5-2.6,1-2.6,1s-2.6-0.4-2.6-1C183.7,274.3,184.8,273.8,186.3,273.8z
		 M183.6,274.8c0,0.6,0,1.3,0,1.9c0.1,0.6,5.2,0.7,5.3-0.1c0.1-0.6,0-1.2,0-1.8C186.7,276.1,185,275.6,183.6,274.8z M186.3,275.8"/>
	<path class="st10" d="M207.7,279.3c1.9,0,3.5,0.8,3.5,1.7s-3.5,1.7-3.5,1.7s-3.5-0.8-3.5-1.7S205.8,279.3,207.7,279.3z M204,281.1
		c0,1.1,0,2.2,0,3.3c0.2,1.1,7.1,1.2,7.3-0.1c0.1-1,0-2.1,0-3.2C208.4,283.4,206,282.4,204,281.1z M207.7,282.8"/>
	<path class="st2" d="M198.4,278.1c1.4,0,2.6,0.6,2.6,1.2s-2.6,1.2-2.6,1.2s-2.6-0.6-2.6-1.2S196.9,278.1,198.4,278.1z M195.6,279.3
		c0,0.8,0,1.6,0,2.4c0.1,0.8,5.2,0.8,5.4-0.1c0.1-0.7,0-1.5,0-2.3C198.9,281,197.1,280.3,195.6,279.3z M198.4,280.6"/>
	<path class="st2" d="M211.2,284.7c1.4,0,2.6,0.6,2.6,1.2s-2.6,1.2-2.6,1.2s-2.6-0.6-2.6-1.2S209.7,284.7,211.2,284.7z M208.5,286
		c0,0.8,0,1.6,0,2.4c0.1,0.8,5.2,0.8,5.4-0.1c0.1-0.7,0-1.5,0-2.3C211.7,287.6,209.9,286.9,208.5,286z M211.2,287.2"/>
	<path class="st7" d="M190.5,296.1"/>
	<path class="st7" d="M224.3,320.8"/>
	<path class="st6" d="M232,418.2"/>
	<path class="st8" d="M272.6,337.4"/>
	<path class="st10" d="M287.9,413.3"/>
	<path class="st9" d="M191.8,393.1"/>
	<path class="st11" d="M259.5,384.1"/>
	<path class="st11" d="M310.1,400.2"/>
	<path class="st2" d="M293.3,337.3c1.4,0,2.6,0.6,2.6,1.2s-2.6,1.2-2.6,1.2s-2.6-0.6-2.6-1.2S291.8,337.3,293.3,337.3z M290.6,338.6
		c0,0.8,0,1.6,0,2.4c0.1,0.8,5.2,0.8,5.4-0.1c0.1-0.7,0-1.5,0-2.3C293.8,340.2,292,339.5,290.6,338.6z M293.3,339.8"/>
	<path class="st2" d="M306.7,340.5c1.4,0,2.6,0.6,2.6,1.2c0,0.7-2.6,1.2-2.6,1.2s-2.6-0.6-2.6-1.2
		C304.1,341.1,305.3,340.5,306.7,340.5z M304,341.8c0,0.8,0,1.6,0,2.4c0.1,0.8,5.2,0.8,5.4-0.1c0.1-0.7,0-1.5,0-2.3
		C307.2,343.4,305.5,342.7,304,341.8z M306.7,343"/>
</g>
<g>
	
		<ellipse transform="matrix(5.176121e-02 -0.9987 0.9987 5.176121e-02 -41.296 554.0475)" class="st13" cx="271.1" cy="298.8" rx="5.6" ry="18.4"/>
	<path class="st2" d="M368.9,205.3c0,0-11.3-7.3-17.1-0.4c0,0-29,70.6-29.8,71.8c-0.4,5.8-51,17.5-50.9,14.9
		c0.6,4.7,1.1,9.4,1.7,14.1c7.9-1.6,38,7,57.5-8.2c26.4-20.6,37.6-60,43.3-80.7L368.9,205.3z"/>
</g>
<path class="st3" d="M523.2,586.2"/>
<path class="st14" d="M306.4,112.6c14.4,1.3,28.7,2.6,43.1,3.9c0,44.3,0,88.7,0,133h41.7c-5-47.8-10-95.6-15-143.3
	c-1.9-4.2-6.8-13-16.9-19C340,75.6,318.8,85,316.7,86L306.4,112.6z"/>
<line class="st15" x1="320.2" y1="96.1" x2="315.3" y2="107.5"/>
<line class="st15" x1="327.9" y1="96" x2="322.9" y2="107.7"/>
<line class="st15" x1="355.2" y1="133.3" x2="358.3" y2="183.5"/>
<line class="st15" x1="363.5" y1="119.4" x2="369.8" y2="193.8"/>
<line class="st15" x1="361.7" y1="213" x2="361.7" y2="245.1"/>
<line class="st15" x1="317.1" y1="92.9" x2="310.8" y2="107.6"/>
<line class="st15" x1="337.8" y1="97.7" x2="332.8" y2="109.5"/>
<path class="st14" d="M319.9,118.3c-1.8,0.5-2.9,2.3-2.8,3.5c0.1,1.3,1.7,2.9,3.8,2.2c0.5-0.8,1.6-2.5,1.6-2.5c0-0.9,3.3-0.4,5,0.4
	C325.4,119.2,323.1,117.2,319.9,118.3z"/>
<path class="st16" d="M314,149.6c3.6,0.6,6.5-1.1,8.8-4.3"/>
</svg>
